<?xml version="1.0" encoding="UTF-8" standalone="no"?>
<svg width="94px" height="94px" viewBox="0 0 94 94" version="1.1" xmlns="http://www.w3.org/2000/svg" xmlns:xlink="http://www.w3.org/1999/xlink" xmlns:sketch="http://www.bohemiancoding.com/sketch/ns">
    <!-- Generator: Sketch 3.5.2 (25235) - http://www.bohemiancoding.com/sketch -->
    <title>Slice 1</title>
    <desc>Created with Sketch.</desc>
    <defs>
        <path id="path-1" d="M0,75 L75.199368,75 L75.199368,0.249233297 L0,0.249233297"></path>
    </defs>
    <g id="Page-1" stroke="none" stroke-width="1" fill="none" fill-rule="evenodd" sketch:type="MSPage">
        <circle id="Oval-1" fill="#FFFF01" sketch:type="MSShapeGroup" cx="47" cy="47" r="47"></circle>
        <g sketch:type="MSLayerGroup" transform="translate(10.000000, 9.000000)">
            <mask id="mask-2" sketch:name="Clip 2" fill="white">
                <use xlink:href="#path-1"></use>
            </mask>
            <g id="Clip-2"></g>
            <path d="M71.8068727,33.9679682 C73.5964918,33.9679682 75.2021974,35.5716375 75.2021974,37.3589869 C75.2021974,39.1392716 73.5964918,40.7500055 71.8068727,40.7500055 C70.0172537,40.7500055 68.4186216,39.1392716 68.4186216,37.3589869 C68.4186216,35.5716375 70.0172537,33.9679682 71.8068727,33.9679682 M62.3424052,57.8746495 C64.1249506,57.8746495 65.7306563,59.4783187 65.7306563,61.2656681 C65.7306563,63.0459529 64.1249506,64.6496221 62.3424052,64.6496221 C60.5527861,64.6496221 58.9470805,63.0459529 58.9470805,61.2656681 C58.9470805,59.4783187 60.5527861,57.8746495 62.3424052,57.8746495 M61.267219,9.52437568 C63.0568381,9.52437568 64.6625437,11.1351095 64.6625437,12.9153943 C64.6625437,14.7027437 63.0568381,16.3064129 61.267219,16.3064129 C59.4776,16.3064129 57.8718944,14.7027437 57.8718944,12.9153943 C57.8718944,11.1351095 59.4776,9.52437568 61.267219,9.52437568 M37.5140935,0.248526835 C39.296639,0.248526835 40.9023446,1.85926068 40.9023446,3.63954545 C40.9023446,5.42689485 39.296639,7.03056407 37.5140935,7.03056407 C35.7244745,7.03056407 34.1187688,5.42689485 34.1187688,3.63954545 C34.1187688,1.85926068 35.7244745,0.248526835 37.5140935,0.248526835 M37.3301801,68.2172563 C39.1197991,68.2172563 40.7255048,69.8279901 40.7255048,71.6082749 C40.7255048,73.3956243 39.1197991,74.9992935 37.3301801,74.9992935 C35.5476346,74.9992935 33.9348554,73.3956243 33.9348554,71.6082749 C33.9348554,69.8279901 35.5476346,68.2172563 37.3301801,68.2172563 M14.1146476,58.9414074 C15.8971931,58.9414074 17.5028987,60.5521413 17.5028987,62.3324261 C17.5028987,64.1197755 15.8971931,65.7234447 14.1146476,65.7234447 C12.3250286,65.7234447 10.7193229,64.1197755 10.7193229,62.3324261 C10.7193229,60.5521413 12.3250286,58.9414074 14.1146476,58.9414074 M54.8373229,31.8273877 L39.296639,31.8273877 L20.7213835,11.4883406 C15.0059203,5.78012596 5.89513247,14.342448 11.4337558,20.2343428 L31.9754701,42.5302903 C33.0435827,43.9573439 34.6492883,44.6708708 36.6157472,44.6708708 L54.8373229,44.6708708 C62.6960848,44.6708708 63.5873576,31.8273877 54.8373229,31.8273877 M3.39108052,33.9679682 C5.18069957,33.9679682 6.78640519,35.5716375 6.78640519,37.3589869 C6.78640519,39.1392716 5.18069957,40.7500055 3.39108052,40.7500055 C1.60853506,40.7500055 0.00282943723,39.1392716 0.00282943723,37.3589869 C0.00282943723,35.5716375 1.60853506,33.9679682 3.39108052,33.9679682" id="Fill-1" fill="#D56A5A" sketch:type="MSShapeGroup" mask="url(#mask-2)"></path>
        </g>
    </g>
</svg>