<?xml version="1.0" encoding="UTF-8" standalone="no"?>
<svg width="94px" height="105px" viewBox="0 0 94 105" version="1.1" xmlns="http://www.w3.org/2000/svg" xmlns:xlink="http://www.w3.org/1999/xlink" xmlns:sketch="http://www.bohemiancoding.com/sketch/ns">
    <!-- Generator: Sketch 3.5.2 (25235) - http://www.bohemiancoding.com/sketch -->
    <title>Slice 1</title>
    <desc>Created with Sketch.</desc>
    <defs></defs>
    <g id="Page-1" stroke="none" stroke-width="1" fill="none" fill-rule="evenodd" sketch:type="MSPage">
        <circle id="Oval-1" fill="#FFFF01" sketch:type="MSShapeGroup" cx="47" cy="47" r="47"></circle>
        <g sketch:type="MSLayerGroup" transform="translate(47.500000, 47.000000) rotate(-15.000000) translate(-47.500000, -47.000000) translate(19.000000, 18.000000)" fill="#D56A5A">
            <path d="M36.495048,1.49927129 L0.918498,37.3421228 C-1.079922,39.354895 0.518928,43.3815881 2.517918,45.3949347 L44.488728,3.11063762 C42.490308,1.09671683 38.494038,-0.514649505 36.495048,1.49927129" id="Fill-1" sketch:type="MSShapeGroup"></path>
            <path d="M12.511044,55.463505 C14.508894,57.478 18.506874,59.0882178 20.505294,57.074297 L56.081274,21.2325941 C58.080834,19.2192475 56.481414,15.1914059 54.482424,13.1780594 L12.511044,55.463505 Z" id="Fill-3" sketch:type="MSShapeGroup"></path>
            <path d="M46.688244,10.9636079 L46.688244,10.9636079 C46.015074,11.6418059 45.788784,12.9740832 45.569904,14.2632911 C45.302574,15.8396277 45.027264,17.4699446 43.890114,18.6155881 C42.727884,19.786499 40.947204,20.1454099 39.225804,20.4916871 C38.114874,20.7162218 36.731484,20.9941624 36.294864,21.4346178 C35.858244,21.8739248 35.581224,23.2670733 35.359494,24.3874495 C35.015214,26.1217069 34.658964,27.9151129 33.495024,29.0860238 C32.333934,30.2586574 30.553254,30.6164198 28.831854,30.962697 C27.720354,31.1866574 26.337534,31.4657465 25.900914,31.9050535 C25.561194,32.2473109 25.255674,33.7133901 25.051614,34.6856079 C24.672564,36.4956673 24.280404,38.3711921 23.102784,39.5570337 C21.924594,40.7434495 20.064684,41.1391129 18.266334,41.5204198 C17.303034,41.7248554 15.847254,42.0343802 15.507534,42.3754891 C15.168384,42.7171723 14.861724,44.1849743 14.658804,45.1554693 C14.279754,46.966103 13.887594,48.8410535 12.709974,50.0274693 C12.047634,50.6953307 10.973754,50.6941822 10.311414,50.0274693 C9.649644,49.3601822 9.649644,48.2782812 10.311414,47.6115683 C10.777104,47.1424 11.102004,45.5873109 11.340834,44.4502812 C11.709624,42.6861624 12.058464,41.0190931 13.110114,39.9595881 C14.161764,38.9000832 15.815904,38.5480634 17.567514,38.1770931 C18.695544,37.938202 20.239674,37.6097267 20.704794,37.1411327 C21.170484,36.6725386 21.495384,35.1174495 21.734214,33.9798455 C22.103004,32.2157267 22.451844,30.5486574 23.502924,29.4885782 C24.666294,28.3170931 26.445264,27.9587564 28.167234,27.611905 C29.278164,27.3879446 30.662124,27.1094297 31.097604,26.6695485 C31.534794,26.2296673 31.811814,24.8365188 32.033544,23.7167168 C32.377824,21.9818851 32.734644,20.1884792 33.896874,19.0175683 C35.059104,17.8460832 36.839784,17.4871723 38.561184,17.140895 C39.671544,16.9169347 41.056074,16.6384198 41.492124,16.1985386 C41.865474,15.8229743 42.058134,14.6882416 42.227424,13.6873109 C42.520974,11.9559248 42.853284,9.99426139 44.290254,8.54655842 C44.952594,7.87927129 46.027044,7.87927129 46.688814,8.54655842 C47.350014,9.21384554 47.350584,10.2957465 46.688244,10.9636079 L46.688244,10.9636079 Z M52.883574,3.51261782 L52.883574,3.51261782 C50.885154,1.49927129 47.688024,3.11006337 46.089174,4.72085545 C46.088604,4.72085545 4.117224,47.0068752 4.116654,47.0080238 C2.517804,48.6182416 0.918954,51.8398257 2.917374,53.8531723 L4.117224,55.0608356 C6.115644,57.0747564 9.313344,55.4639644 10.912194,53.8531723 L52.883574,11.5677267 C54.482994,9.95693465 56.081274,6.7353505 54.083424,4.7214297 L54.082854,4.7214297 L52.883574,3.51261782 Z" id="Fill-6" sketch:type="MSShapeGroup"></path>
        </g>
        <path d="M37,92 L57,92 L47,105 L37,92 Z" id="Triangle-1" fill="#FFFF01" sketch:type="MSShapeGroup"></path>
    </g>
</svg>