<?xml version="1.0" encoding="UTF-8" ?>
<!DOCTYPE svg PUBLIC "-//W3C//DTD SVG 1.1//EN" "http://www.w3.org/Graphics/SVG/1.1/DTD/svg11.dtd">
<svg width="172pt" height="49pt" viewBox="0 0 172 49" version="1.1" xmlns="http://www.w3.org/2000/svg">
<path fill="#ffffff" d=" M 0.00 0.00 L 172.00 0.00 L 172.00 21.86 C 169.87 23.95 168.18 26.41 166.41 28.79 C 167.43 22.31 165.08 15.67 167.54 9.37 C 166.05 10.08 163.82 10.20 163.26 12.06 C 161.83 15.55 159.84 18.75 157.59 21.77 C 157.21 21.41 156.44 20.69 156.05 20.33 C 154.30 24.57 150.99 27.80 147.13 30.17 C 149.00 25.75 151.37 21.56 153.34 17.19 C 154.22 15.39 154.23 13.18 152.92 11.59 C 151.96 12.04 151.28 12.87 150.53 13.58 C 147.38 9.73 142.54 13.19 139.97 15.92 C 136.73 19.54 133.08 24.66 135.21 29.70 C 136.95 32.77 140.72 31.10 143.38 30.59 C 139.12 33.70 133.19 35.64 131.55 41.23 C 130.42 44.09 131.89 46.96 133.89 48.99 C 135.57 48.51 137.38 48.01 138.52 46.58 C 141.93 42.64 143.78 37.70 145.87 33.01 C 149.06 31.77 152.10 30.09 154.55 27.67 C 158.45 34.79 169.94 32.15 172.00 24.83 L 172.00 49.00 L 0.00 49.00 L 0.00 0.00 Z" />
<path fill="#000000" d=" M 5.96 4.53 C 9.21 3.11 12.54 1.79 15.96 0.84 C 21.62 -0.28 25.65 6.20 24.88 11.22 C 23.56 20.76 15.64 28.40 6.82 31.50 C 3.06 33.07 -0.39 28.64 0.66 25.11 C 2.23 18.73 5.77 13.02 9.25 7.51 C 8.11 6.56 7.01 5.57 5.96 4.53 Z" />
<path fill="#000000" d=" M 99.70 3.96 C 103.88 3.21 107.63 0.40 111.99 0.79 C 117.40 2.23 119.36 8.91 117.81 13.82 C 115.35 22.24 108.14 28.92 99.89 31.57 C 97.11 32.64 94.77 30.11 93.78 27.80 C 93.43 25.28 94.57 22.88 95.51 20.61 C 97.62 16.07 99.84 11.56 102.71 7.46 C 101.41 6.56 100.01 5.64 99.70 3.96 Z" />
<path fill="#000000" d=" M 57.58 9.41 C 59.14 7.13 60.01 3.92 62.85 2.92 C 63.30 4.82 63.29 6.77 62.76 8.66 C 64.00 9.37 65.18 10.21 65.78 11.55 C 64.19 11.72 62.59 11.80 61.01 12.09 C 58.77 15.26 57.06 18.78 55.23 22.21 C 54.14 24.56 52.59 27.44 54.28 29.90 C 56.16 30.52 57.56 28.89 58.70 27.67 C 62.69 22.93 64.10 16.55 68.26 11.93 C 69.88 10.83 70.51 14.12 70.27 15.22 C 69.17 20.41 63.66 24.33 64.74 30.02 C 71.59 26.10 73.11 17.52 77.84 11.73 C 80.12 11.50 79.49 14.59 79.43 15.97 C 77.64 20.80 74.69 25.13 72.88 29.98 C 76.45 28.25 78.36 24.25 81.99 22.82 C 81.47 28.28 76.08 30.97 71.58 32.78 C 69.32 37.62 67.52 42.87 63.82 46.84 C 62.33 48.91 58.39 48.97 57.65 46.22 C 56.14 43.32 57.46 39.85 59.35 37.47 C 61.34 34.78 64.52 33.50 67.30 31.84 C 68.19 31.49 68.57 30.60 68.52 29.71 C 66.52 32.48 61.98 32.31 60.63 29.07 C 58.80 30.73 56.51 32.24 53.90 31.74 C 51.78 31.64 50.88 29.39 50.10 27.76 C 48.56 29.68 46.67 31.81 44.00 31.80 C 41.64 32.14 39.29 30.49 39.11 28.06 C 38.56 23.62 41.53 19.81 44.08 16.50 C 42.75 16.83 41.41 17.14 40.07 17.42 C 37.52 22.66 34.66 28.37 29.28 31.22 C 27.00 32.61 22.96 32.08 22.72 28.89 C 22.13 24.25 25.00 20.08 27.11 16.16 C 28.27 14.61 28.88 12.08 31.14 11.87 C 34.14 18.59 25.49 23.26 26.34 29.75 C 32.22 28.91 35.16 22.20 37.45 17.34 C 34.55 14.18 38.13 8.17 42.17 8.58 C 42.02 10.60 41.71 12.61 41.31 14.60 C 43.29 13.69 45.24 12.74 47.16 11.73 C 47.96 13.00 48.66 14.31 49.29 15.67 C 46.78 20.01 41.35 24.34 43.12 29.81 C 46.27 30.39 47.54 26.22 49.18 24.21 C 52.40 21.02 53.39 16.39 55.73 12.61 C 54.23 12.07 53.07 11.13 52.26 9.78 C 54.03 9.57 55.80 9.47 57.58 9.41 Z" />
<path fill="#ffffff" d=" M 13.26 6.43 C 15.47 5.79 17.67 4.14 20.05 4.72 C 22.31 6.36 21.52 9.59 20.90 11.86 C 18.20 19.81 11.38 26.15 3.46 28.75 C 4.85 20.53 11.62 14.52 13.26 6.43 Z" />
<path fill="#ffffff" d=" M 106.44 6.54 C 108.55 5.79 110.60 4.66 112.87 4.50 C 115.33 5.48 115.19 8.66 114.60 10.78 C 112.23 19.29 105.10 26.06 96.79 28.79 C 98.18 22.36 102.15 16.97 105.21 11.27 C 106.05 9.83 106.19 8.15 106.44 6.54 Z" />
<path fill="#000000" d=" M 34.93 12.32 C 30.87 14.09 29.12 7.74 33.02 6.53 C 34.86 7.99 35.34 10.07 34.93 12.32 Z" />
<path fill="#000000" d=" M 163.26 12.06 C 163.82 10.20 166.05 10.08 167.54 9.37 C 165.08 15.67 167.43 22.31 166.41 28.79 C 168.18 26.41 169.87 23.95 172.00 21.86 L 172.00 24.83 C 169.94 32.15 158.45 34.79 154.55 27.67 C 152.10 30.09 149.06 31.77 145.87 33.01 C 143.78 37.70 141.93 42.64 138.52 46.58 C 137.38 48.01 135.57 48.51 133.89 48.99 C 131.89 46.96 130.42 44.09 131.55 41.23 C 133.19 35.64 139.12 33.70 143.38 30.59 C 140.72 31.10 136.95 32.77 135.21 29.70 C 133.08 24.66 136.73 19.54 139.97 15.92 C 142.54 13.19 147.38 9.73 150.53 13.58 C 151.28 12.87 151.96 12.04 152.92 11.59 C 154.23 13.18 154.22 15.39 153.34 17.19 C 151.37 21.56 149.00 25.75 147.13 30.17 C 150.99 27.80 154.30 24.57 156.05 20.33 C 156.44 20.69 157.21 21.41 157.59 21.77 C 159.84 18.75 161.83 15.55 163.26 12.06 Z" />
<path fill="#000000" d=" M 117.74 24.03 C 118.48 18.88 121.78 13.45 127.08 12.07 C 129.59 11.44 131.38 13.68 132.71 15.44 C 133.83 17.01 132.99 19.38 134.63 20.70 C 132.29 22.28 132.09 25.41 130.37 27.50 C 128.59 30.14 125.57 32.52 122.18 31.68 C 118.86 30.91 117.19 27.20 117.74 24.03 Z" />
<path fill="#ffffff" d=" M 139.44 24.38 C 141.33 20.28 144.35 16.56 148.41 14.45 C 148.38 20.59 144.12 25.98 139.76 29.97 C 137.55 28.65 138.73 26.17 139.44 24.38 Z" />
<path fill="#ffffff" d=" M 121.86 29.84 C 119.60 25.22 122.99 20.18 125.96 16.72 C 126.88 18.30 127.92 19.82 129.21 21.13 C 127.64 24.64 125.70 28.41 121.86 29.84 Z" />
<path fill="#ffffff" d=" M 157.69 25.85 C 159.28 23.60 160.78 21.29 162.33 19.02 C 162.44 22.68 163.25 26.73 161.09 29.99 C 159.47 29.05 158.49 27.48 157.69 25.85 Z" />
<path fill="#ffffff" d=" M 59.52 45.20 C 60.14 40.92 62.98 37.40 66.32 34.83 C 64.54 38.52 62.97 42.73 59.52 45.20 Z" />
<path fill="#ffffff" d=" M 133.86 45.65 C 134.03 41.12 137.35 37.66 140.63 34.93 C 138.97 38.82 136.94 42.68 133.86 45.65 Z" />
</svg>
